<?xml version="1.0" standalone="no"?>
<!DOCTYPE svg PUBLIC "-//W3C//DTD SVG 20010904//EN"
 "http://www.w3.org/TR/2001/REC-SVG-20010904/DTD/svg10.dtd">
<svg version="1.0" xmlns="http://www.w3.org/2000/svg"
 width="1024.000000pt" height="1024.000000pt" viewBox="0 0 1024.000000 1024.000000"
 preserveAspectRatio="xMidYMid meet">

<g transform="translate(0.000000,1024.000000) scale(0.100000,-0.100000)"
fill="#000000" stroke="none">
<path d="M3990 7390 c-8 -5 -10 -10 -5 -10 6 0 17 5 25 10 8 5 11 10 5 10 -5
0 -17 -5 -25 -10z"/>
<path d="M3910 7360 c-8 -5 -10 -10 -5 -10 6 0 17 5 25 10 8 5 11 10 5 10 -5
0 -17 -5 -25 -10z"/>
<path d="M3860 7340 c-8 -5 -10 -10 -5 -10 6 0 17 5 25 10 8 5 11 10 5 10 -5
0 -17 -5 -25 -10z"/>
<path d="M3728 7279 c-32 -16 -58 -32 -58 -34 0 -5 119 52 129 61 13 12 -22
-1 -71 -27z"/>
<path d="M3575 7194 c-90 -55 -206 -136 -201 -142 3 -2 23 10 46 28 23 18 43
30 46 27 8 -8 -86 -68 -97 -61 -25 15 -284 -234 -390 -376 -203 -274 -300
-527 -330 -866 -37 -415 101 -867 370 -1214 71 -92 238 -263 364 -374 110 -96
115 -110 93 -238 -21 -127 -74 -329 -121 -467 -19 -58 -35 -112 -35 -122 0
-26 37 -66 67 -72 53 -10 109 11 707 272 171 75 286 115 395 137 91 18 193 16
426 -7 180 -17 544 -7 729 21 586 88 1072 321 1421 681 l90 93 -105 -100 c-58
-55 -143 -128 -190 -164 -93 -69 -119 -86 -83 -55 13 12 23 26 23 33 0 7 4 11
9 8 12 -8 71 42 70 57 0 8 -2 8 -6 0 -2 -7 -9 -13 -14 -13 -4 0 -6 7 -2 16 4
12 2 15 -8 12 -8 -3 -13 -11 -12 -17 2 -6 -2 -11 -7 -11 -6 0 -10 5 -10 11 0
5 -4 7 -10 4 -5 -3 -10 1 -10 9 0 9 7 13 20 11 11 -2 22 1 26 6 4 7 -3 9 -17
7 -17 -2 -25 3 -27 17 -2 11 -9 25 -14 30 -8 7 -9 6 -4 -2 5 -8 2 -11 -7 -7
-7 2 -35 -4 -62 -16 -26 -11 -49 -19 -52 -17 -8 8 127 58 138 51 7 -4 9 -3 6
3 -3 5 11 18 31 27 133 63 335 210 437 317 57 59 55 59 -23 -14 -348 -321
-793 -486 -1420 -528 -341 -23 -760 24 -1101 122 -295 85 -602 233 -814 393
-375 283 -568 630 -567 1020 1 229 58 408 193 605 50 73 244 278 337 356 25
20 31 28 14 16 -17 -11 -54 -41 -83 -67 -43 -39 -55 -45 -63 -33 -8 11 -9 11
-5 -2 3 -10 -4 -26 -17 -38 -24 -22 -46 -28 -46 -11 0 6 8 10 19 10 10 0 24 6
30 14 10 11 8 17 -6 25 -10 6 -13 11 -7 11 13 0 26 37 15 43 -3 2 -1 3 6 1 6
-1 13 5 16 15 6 23 -10 64 -23 56 -6 -4 -7 1 -3 11 4 12 3 15 -5 10 -7 -4 -12
-1 -12 8 0 9 -5 16 -12 16 -7 0 -5 7 5 18 15 16 15 18 -3 18 -11 0 -20 -4 -20
-9 0 -4 -4 -5 -10 -2 -17 11 -11 24 10 20 11 -2 20 0 20 5 0 5 -9 12 -20 15
-11 3 -20 11 -20 17 0 5 -7 8 -15 4 -13 -5 -13 -2 1 22 11 18 11 21 2 10 -10
-12 -18 -14 -25 -7 -6 6 -18 12 -28 13 -10 1 -19 10 -21 19 -2 19 11 23 21 7
3 -5 12 -10 18 -10 7 0 4 5 -6 11 -17 10 -17 12 -3 22 14 10 13 12 -8 12 -13
0 -22 -3 -20 -6 2 -4 -2 -12 -10 -18 -10 -9 -15 -8 -20 4 -3 8 -1 15 4 15 5 0
8 9 7 20 -1 11 -5 20 -9 20 -4 0 -7 6 -5 13 1 6 -6 11 -16 10 -12 0 -16 4 -13
13 3 8 1 14 -5 14 -6 0 -19 10 -29 22 -17 21 -17 23 6 41 13 10 22 22 19 27
-3 5 26 28 65 51 60 35 79 49 68 49 -2 0 -30 -16 -63 -36z m-80 -74 c-3 -5
-11 -10 -16 -10 -6 0 -7 5 -4 10 3 6 11 10 16 10 6 0 7 -4 4 -10z m-135 -93
c0 -2 -15 -14 -32 -27 l-33 -23 24 26 c21 23 41 35 41 24z m180 -48 c0 -6 -4
-7 -10 -4 -5 3 -10 11 -10 16 0 6 5 7 10 4 6 -3 10 -11 10 -16z m174 -265 c3
-8 2 -12 -4 -9 -6 3 -10 10 -10 16 0 14 7 11 14 -7z m26 -24 c0 -5 -5 -10 -11
-10 -5 0 -7 5 -4 10 3 6 8 10 11 10 2 0 4 -4 4 -10z m2870 -2380 c-8 -5 -22
-9 -30 -9 -10 0 -8 3 5 9 27 12 43 12 25 0z"/>
<path d="M4138 6854 c-27 -13 -48 -27 -48 -29 0 -5 99 42 109 51 13 11 -20 0
-61 -22z"/>
<path d="M4034 6794 c-18 -14 -18 -15 4 -4 12 6 22 13 22 15 0 8 -5 6 -26 -11z"/>
<path d="M3979 6759 l-24 -20 28 17 c15 9 27 18 27 20 0 8 -8 4 -31 -17z"/>
<path d="M3745 6630 c-3 -5 -1 -10 4 -10 6 0 11 5 11 10 0 6 -2 10 -4 10 -3 0
-8 -4 -11 -10z"/>
<path d="M4313 6386 c-89 -29 -168 -100 -206 -185 -31 -70 -29 -179 5 -252 62
-136 196 -206 339 -179 159 30 261 157 260 325 0 93 -43 182 -114 236 -79 59
-200 83 -284 55z m258 -135 c20 -20 29 -39 29 -61 0 -41 -47 -90 -87 -90 -59
0 -111 68 -91 120 16 44 38 60 80 60 30 0 46 -7 69 -29z"/>
<path d="M5764 6380 c-129 -42 -214 -160 -214 -296 0 -94 22 -154 81 -218 66
-72 129 -100 230 -100 63 0 87 5 132 27 65 32 131 100 159 164 24 56 29 158
10 224 -46 158 -234 253 -398 199z m270 -131 c35 -41 34 -83 -3 -120 -20 -20
-39 -29 -61 -29 -45 0 -90 47 -90 95 0 82 101 117 154 54z"/>
<path d="M4680 5521 c-16 -30 -13 -43 30 -128 141 -282 507 -348 735 -132 89
84 150 230 113 267 -20 20 -42 14 -135 -32 -110 -55 -194 -76 -309 -76 -113 0
-186 18 -299 75 -100 50 -119 54 -135 26z"/>
<path d="M7379 4853 c-13 -16 -12 -17 4 -4 16 13 21 21 13 21 -2 0 -10 -8 -17
-17z"/>
<path d="M7319 4833 c-13 -16 -12 -17 4 -4 16 13 21 21 13 21 -2 0 -10 -8 -17
-17z"/>
<path d="M7262 4796 c-46 -33 -53 -43 -14 -20 19 10 38 25 44 32 15 17 8 14
-30 -12z"/>
<path d="M6456 4750 c-25 -27 -46 -57 -45 -67 0 -13 3 -11 10 7 6 14 29 44 52
68 22 23 39 42 35 42 -3 0 -26 -22 -52 -50z"/>
<path d="M7150 4730 c-30 -16 -51 -29 -47 -30 10 0 107 49 107 55 0 7 1 7 -60
-25z"/>
<path d="M6990 4665 c-19 -7 -28 -14 -20 -14 8 0 29 6 45 14 39 17 21 18 -25
0z"/>
<path d="M6420 4656 c0 -2 7 -7 16 -10 8 -3 12 -2 9 4 -6 10 -25 14 -25 6z"/>
<path d="M7249 4643 c-13 -16 -12 -17 4 -4 9 7 17 15 17 17 0 8 -8 3 -21 -13z"/>
<path d="M6928 4643 c7 -3 16 -2 19 1 4 3 -2 6 -13 5 -11 0 -14 -3 -6 -6z"/>
<path d="M6878 4633 c6 -2 18 -2 25 0 6 3 1 5 -13 5 -14 0 -19 -2 -12 -5z"/>
<path d="M6510 4620 c25 -8 107 -13 99 -6 -2 2 -31 6 -64 9 -37 3 -51 2 -35
-3z"/>
<path d="M6828 4623 c6 -2 18 -2 25 0 6 3 1 5 -13 5 -14 0 -19 -2 -12 -5z"/>
<path d="M6748 4613 c12 -2 30 -2 40 0 9 3 -1 5 -23 4 -22 0 -30 -2 -17 -4z"/>
<path d="M7219 4603 c-13 -16 -12 -17 4 -4 16 13 21 21 13 21 -2 0 -10 -8 -17
-17z"/>
<path d="M7169 4543 c-13 -16 -12 -17 4 -4 9 7 17 15 17 17 0 8 -8 3 -21 -13z"/>
</g>
</svg>
